<svg width="32" height="32" viewBox="0 0 32 32" fill="none" xmlns="http://www.w3.org/2000/svg">
<mask id="mask0" mask-type="alpha" maskUnits="userSpaceOnUse" x="0" y="0" width="32" height="32">
<rect width="32" height="32" rx="5.25" fill="#C4C4C4"/>
</mask>
<g mask="url(#mask0)">
<rect width="32" height="32" fill="white"/>
<path d="M9.69023 8.461H17.1482C18.9376 8.461 20.3236 8.89367 21.3062 9.759C22.2889 10.6097 22.7802 11.7683 22.7802 13.235C22.7802 14.687 22.2816 15.8457 21.2842 16.711C20.2869 17.5763 18.9082 18.009 17.1482 18.009H13.8262V24.125H9.69023V8.461ZM16.5982 14.929C18.1529 14.929 18.9302 14.379 18.9302 13.279C18.9302 12.7217 18.7396 12.3037 18.3582 12.025C17.9916 11.7317 17.4049 11.585 16.5982 11.585H13.8262V14.929H16.5982Z" fill="#FCAD68"/>
</g>
</svg>
